<mxfile host="app.diagrams.net" agent="Mozilla/5.0 (Windows NT 10.0; Win64; x64) AppleWebKit/537.36 (KHTML, like Gecko) Chrome/131.0.0.0 Safari/537.36" version="26.0.8">
  <diagram name="Page-1" id="9ATyoNoLPIfWOJnZ1qPF">
    <mxGraphModel dx="1877" dy="557" grid="1" gridSize="10" guides="1" tooltips="1" connect="1" arrows="1" fold="1" page="1" pageScale="1" pageWidth="827" pageHeight="1169" math="0" shadow="0">
      <root>
        <mxCell id="0" />
        <mxCell id="1" parent="0" />
        <mxCell id="91Qdzsh7UqTkiSh11w_M-16" value="ลูกค้า" style="rounded=1;whiteSpace=wrap;html=1;" vertex="1" parent="1">
          <mxGeometry x="-50" y="260" width="120" height="60" as="geometry" />
        </mxCell>
        <mxCell id="91Qdzsh7UqTkiSh11w_M-17" value="ผู้ดูแลระบบ" style="rounded=1;whiteSpace=wrap;html=1;" vertex="1" parent="1">
          <mxGeometry x="750" y="260" width="120" height="60" as="geometry" />
        </mxCell>
        <mxCell id="91Qdzsh7UqTkiSh11w_M-28" value="0" style="swimlane;whiteSpace=wrap;html=1;startSize=23;" vertex="1" parent="1">
          <mxGeometry x="313.5" y="225" width="200" height="130" as="geometry" />
        </mxCell>
        <mxCell id="91Qdzsh7UqTkiSh11w_M-29" value="ระบบส่งเสริมการขายสำหรับร้านดีวารี" style="rounded=0;whiteSpace=wrap;html=1;" vertex="1" parent="91Qdzsh7UqTkiSh11w_M-28">
          <mxGeometry y="20" width="200" height="110" as="geometry" />
        </mxCell>
        <mxCell id="91Qdzsh7UqTkiSh11w_M-32" value="" style="endArrow=classic;html=1;rounded=0;entryX=0;entryY=0.25;entryDx=0;entryDy=0;exitX=1.005;exitY=0.329;exitDx=0;exitDy=0;exitPerimeter=0;" edge="1" parent="1" source="91Qdzsh7UqTkiSh11w_M-16">
          <mxGeometry width="50" height="50" relative="1" as="geometry">
            <mxPoint x="120" y="280.5" as="sourcePoint" />
            <mxPoint x="313.5" y="280" as="targetPoint" />
          </mxGeometry>
        </mxCell>
        <mxCell id="91Qdzsh7UqTkiSh11w_M-33" value="" style="endArrow=classic;html=1;rounded=0;exitX=0.003;exitY=0.456;exitDx=0;exitDy=0;exitPerimeter=0;entryX=1.013;entryY=0.595;entryDx=0;entryDy=0;entryPerimeter=0;" edge="1" parent="1" source="91Qdzsh7UqTkiSh11w_M-29" target="91Qdzsh7UqTkiSh11w_M-16">
          <mxGeometry width="50" height="50" relative="1" as="geometry">
            <mxPoint x="312.78" y="300" as="sourcePoint" />
            <mxPoint x="120" y="296" as="targetPoint" />
          </mxGeometry>
        </mxCell>
        <mxCell id="91Qdzsh7UqTkiSh11w_M-34" value="" style="endArrow=classic;html=1;rounded=0;entryX=0;entryY=0.367;entryDx=0;entryDy=0;entryPerimeter=0;" edge="1" parent="1" target="91Qdzsh7UqTkiSh11w_M-17">
          <mxGeometry width="50" height="50" relative="1" as="geometry">
            <mxPoint x="513.5" y="282.5" as="sourcePoint" />
            <mxPoint x="707" y="282" as="targetPoint" />
          </mxGeometry>
        </mxCell>
        <mxCell id="91Qdzsh7UqTkiSh11w_M-35" value="" style="endArrow=classic;html=1;rounded=0;exitX=-0.027;exitY=0.61;exitDx=0;exitDy=0;exitPerimeter=0;" edge="1" parent="1" source="91Qdzsh7UqTkiSh11w_M-17">
          <mxGeometry width="50" height="50" relative="1" as="geometry">
            <mxPoint x="707.5" y="297" as="sourcePoint" />
            <mxPoint x="513.5" y="298" as="targetPoint" />
          </mxGeometry>
        </mxCell>
        <mxCell id="91Qdzsh7UqTkiSh11w_M-36" value="&lt;ul&gt;&lt;li&gt;ข้อมูลลูกค้า&lt;/li&gt;&lt;li&gt;ข้อมูลพนักงาน&lt;/li&gt;&lt;li&gt;ข้อมูลบริการ&lt;/li&gt;&lt;li&gt;ข้อมูลคอร์ส&lt;/li&gt;&lt;li&gt;ข้อมูลการจอง&lt;/li&gt;&lt;/ul&gt;" style="text;html=1;align=left;verticalAlign=middle;whiteSpace=wrap;rounded=0;" vertex="1" parent="1">
          <mxGeometry x="550" y="300" width="160" height="80" as="geometry" />
        </mxCell>
        <mxCell id="91Qdzsh7UqTkiSh11w_M-37" value="&lt;ul&gt;&lt;li&gt;รายงานข้อมูลลูกค้า&lt;/li&gt;&lt;li&gt;รายงานข้อมูลพนักงาน&lt;/li&gt;&lt;li&gt;รายงานข้อมูลบริการ&lt;/li&gt;&lt;li&gt;รายงานข้อมูลคอร์ส&lt;/li&gt;&lt;li&gt;รายงานข้อมูลการจอง&lt;/li&gt;&lt;/ul&gt;" style="text;html=1;align=left;verticalAlign=middle;whiteSpace=wrap;rounded=0;" vertex="1" parent="1">
          <mxGeometry x="550" y="200" width="160" height="80" as="geometry" />
        </mxCell>
        <mxCell id="91Qdzsh7UqTkiSh11w_M-38" value="&lt;ul&gt;&lt;li&gt;ข้อมูลการสมัครสมาชิก&lt;/li&gt;&lt;li&gt;ข้อมูลการจอง&lt;/li&gt;&lt;li&gt;ข้อมูลการใช้บริการ&lt;/li&gt;&lt;li&gt;ข้อมูลการชำระเงิน&lt;/li&gt;&lt;/ul&gt;" style="text;html=1;align=left;verticalAlign=middle;whiteSpace=wrap;rounded=0;" vertex="1" parent="1">
          <mxGeometry x="90" y="200" width="160" height="80" as="geometry" />
        </mxCell>
        <mxCell id="91Qdzsh7UqTkiSh11w_M-39" value="&lt;ul&gt;&lt;li&gt;รายงานข้อมูลการสมัครสมาชิก&lt;/li&gt;&lt;li&gt;รายงานข้อมูลการจอง&lt;/li&gt;&lt;li&gt;รายงานข้อมูลการใช้บริการ&lt;/li&gt;&lt;li&gt;รายงานข้อมูลการชำระเงิน&lt;/li&gt;&lt;/ul&gt;" style="text;html=1;align=left;verticalAlign=middle;whiteSpace=wrap;rounded=0;" vertex="1" parent="1">
          <mxGeometry x="90" y="290" width="190" height="80" as="geometry" />
        </mxCell>
      </root>
    </mxGraphModel>
  </diagram>
</mxfile>
